<svg width="1000" height="1000" viewBox="0 0 1000 1000" fill="none" xmlns="http://www.w3.org/2000/svg">
<g clip-path="url(#clip0_606_65)">
<path d="M125.625 352.5L152.5 921.875C152.994 929.748 151.9 937.64 149.281 945.081C146.663 952.523 142.574 959.361 137.259 965.19C131.943 971.019 125.509 975.718 118.34 979.009C111.17 982.3 103.412 984.115 95.5269 984.345C87.6417 984.576 79.7906 983.218 72.4411 980.352C65.0916 977.486 58.3938 973.17 52.7465 967.662C47.0992 962.155 42.6177 955.567 39.5688 948.291C36.5199 941.016 34.966 933.201 34.9996 925.313V921.875L61.8746 352.5H125.625Z" fill="#58565D"/>
<path d="M66.2501 925.313V921.875L93.1251 352.5H61.8751L35.0001 921.875V925.313C34.9703 940.932 41.1405 955.925 52.1557 966.999C63.171 978.072 78.1308 984.322 93.7501 984.375C99.0506 984.301 104.316 983.502 109.4 982C97.0046 978.558 86.0767 971.154 78.2851 960.918C70.4936 950.682 66.2667 938.177 66.2501 925.313V925.313Z" fill="#3C3B41"/>
<path d="M734.375 500C734.374 505.222 734.061 510.44 733.437 515.625C730.432 566.877 710.292 615.632 676.25 654.063C669.656 662.219 662.219 669.656 654.062 676.25C615.632 710.292 566.877 730.432 515.625 733.437C505.246 734.689 494.754 734.689 484.375 733.437C433.123 730.432 384.368 710.292 345.937 676.25C337.781 669.656 330.344 662.219 323.75 654.063C289.708 615.632 269.568 566.877 266.562 515.625C265.311 505.246 265.311 494.754 266.562 484.375C269.567 433.123 289.708 384.368 323.75 345.937C330.344 337.781 337.781 330.344 345.937 323.75C384.369 289.709 433.124 269.569 484.375 266.562C494.754 265.314 505.246 265.314 515.625 266.562C566.876 269.569 615.631 289.709 654.062 323.75C662.219 330.344 669.656 337.781 676.25 345.937C710.292 384.368 730.433 433.123 733.437 484.375C734.061 489.56 734.374 494.778 734.375 500V500Z" fill="white"/>
<path d="M355 654.063C320.958 615.632 300.818 566.877 297.812 515.625C296.561 505.246 296.561 494.754 297.812 484.375C300.817 433.123 320.958 384.368 355 345.937C361.594 337.781 369.031 330.344 377.187 323.75C415.619 289.709 464.374 269.569 515.625 266.562C505.246 265.314 494.754 265.314 484.375 266.562C433.124 269.569 384.369 289.709 345.937 323.75C337.781 330.344 330.344 337.781 323.75 345.937C289.708 384.368 269.567 433.123 266.562 484.375C265.311 494.754 265.311 505.246 266.562 515.625C269.568 566.877 289.708 615.632 323.75 654.063C330.344 662.219 337.781 669.656 345.937 676.25C384.368 710.292 433.123 730.432 484.375 733.437C494.754 734.689 505.246 734.689 515.625 733.437C464.373 730.432 415.618 710.292 377.187 676.25C369.031 669.656 361.594 662.219 355 654.063V654.063Z" fill="#E0E0E2"/>
<path d="M171.875 2.63142e-06C169.823 -0.0011887 167.79 0.402151 165.894 1.18696C163.998 1.97177 162.275 3.12265 160.824 4.5738C159.373 6.02496 158.222 7.74791 157.437 9.64416C156.652 11.5404 156.249 13.5728 156.25 15.625V218.75H109.375V15.625C109.375 11.481 107.729 7.50672 104.799 4.57646C101.868 1.6462 97.894 2.63142e-06 93.75 2.63142e-06C89.606 2.63142e-06 85.6317 1.6462 82.7015 4.57646C79.7712 7.50672 78.125 11.481 78.125 15.625V218.75H31.25V15.625C31.25 11.481 29.6038 7.50672 26.6735 4.57646C23.7433 1.6462 19.769 2.63142e-06 15.625 2.63142e-06C11.481 2.63142e-06 7.50671 1.6462 4.57646 4.57646C1.6462 7.50672 0 11.481 0 15.625L0 281.25C0 306.114 9.8772 329.96 27.4587 347.541C45.0403 365.123 68.886 375 93.75 375C118.614 375 142.46 365.123 160.041 347.541C177.623 329.96 187.5 306.114 187.5 281.25V15.625C187.501 13.5728 187.098 11.5404 186.313 9.64416C185.528 7.74791 184.377 6.02496 182.926 4.5738C181.475 3.12265 179.752 1.97177 177.856 1.18696C175.96 0.402151 173.927 -0.0011887 171.875 2.63142e-06V2.63142e-06Z" fill="#8B8891"/>
<path d="M31.25 281.25V15.625C31.25 11.481 29.6038 7.50671 26.6735 4.57646C23.7433 1.6462 19.769 0 15.625 0C11.481 0 7.50671 1.6462 4.57646 4.57646C1.6462 7.50671 0 11.481 0 15.625L0 281.25C0.0271311 306.106 9.91305 329.936 27.4887 347.511C45.0644 365.087 68.8943 374.973 93.75 375C98.9936 374.915 104.221 374.387 109.375 373.421C87.5701 369.747 67.7672 358.48 53.4696 341.612C39.172 324.744 31.3014 303.362 31.25 281.25V281.25Z" fill="#58565D"/>
<path d="M500 500C497.948 500.001 495.915 499.598 494.019 498.813C492.123 498.028 490.4 496.877 488.949 495.426C487.498 493.975 486.347 492.252 485.562 490.356C484.777 488.46 484.374 486.427 484.375 484.375V406.25C484.375 402.106 486.021 398.132 488.951 395.201C491.882 392.271 495.856 390.625 500 390.625C504.144 390.625 508.118 392.271 511.049 395.201C513.979 398.132 515.625 402.106 515.625 406.25V484.375C515.626 486.427 515.223 488.46 514.438 490.356C513.653 492.252 512.502 493.975 511.051 495.426C509.6 496.877 507.877 498.028 505.981 498.813C504.085 499.598 502.052 500.001 500 500V500ZM515.625 235.312V296.875C515.625 301.019 513.979 304.993 511.049 307.924C508.118 310.854 504.144 312.5 500 312.5C495.856 312.5 491.882 310.854 488.951 307.924C486.021 304.993 484.375 301.019 484.375 296.875V235.312C494.754 234.064 505.246 234.064 515.625 235.312V235.312ZM515.625 703.125V764.687C505.246 765.939 494.754 765.939 484.375 764.687V703.125C484.375 698.981 486.021 695.007 488.951 692.076C491.882 689.146 495.856 687.5 500 687.5C504.144 687.5 508.118 689.146 511.049 692.076C513.979 695.007 515.625 698.981 515.625 703.125ZM323.886 301.788L367.417 345.32C370.347 348.25 371.993 352.224 371.993 356.368C371.993 360.512 370.347 364.487 367.417 367.417C364.487 370.347 360.512 371.993 356.368 371.993C352.224 371.993 348.25 370.347 345.32 367.417L301.788 323.886C308.245 315.663 315.663 308.245 323.886 301.788V301.788ZM654.68 632.582L698.211 676.114C691.757 684.338 684.338 691.757 676.114 698.211L632.582 654.68C631.132 653.229 629.981 651.506 629.195 649.611C628.41 647.715 628.006 645.683 628.006 643.631C628.006 641.579 628.41 639.547 629.195 637.652C629.981 635.756 631.132 634.033 632.582 632.582C634.033 631.132 635.756 629.981 637.652 629.195C639.547 628.41 641.579 628.006 643.631 628.006C645.683 628.006 647.715 628.41 649.611 629.195C651.506 629.981 653.229 631.132 654.68 632.582V632.582ZM235.312 484.375H296.875C301.019 484.375 304.993 486.021 307.924 488.951C310.854 491.882 312.5 495.856 312.5 500C312.5 504.144 310.854 508.118 307.924 511.049C304.993 513.979 301.019 515.625 296.875 515.625H235.312C234.064 505.246 234.064 494.754 235.312 484.375V484.375ZM703.125 484.375H764.687C765.939 494.754 765.939 505.246 764.687 515.625H703.125C698.981 515.625 695.007 513.979 692.076 511.049C689.146 508.118 687.5 504.144 687.5 500C687.5 495.856 689.146 491.882 692.076 488.951C695.007 486.021 698.981 484.375 703.125 484.375ZM301.788 676.114L345.32 632.583C346.771 631.132 348.493 629.981 350.389 629.196C352.285 628.411 354.316 628.007 356.368 628.007C358.42 628.007 360.452 628.411 362.348 629.196C364.243 629.981 365.966 631.132 367.417 632.583C368.868 634.034 370.019 635.757 370.804 637.652C371.589 639.548 371.993 641.58 371.993 643.632C371.993 645.684 371.589 647.715 370.804 649.611C370.019 651.507 368.868 653.229 367.417 654.68L323.886 698.212C315.663 691.755 308.245 684.337 301.788 676.114V676.114ZM632.582 345.32L676.114 301.789C684.338 308.243 691.757 315.662 698.211 323.886L654.68 367.417C653.229 368.868 651.506 370.019 649.611 370.805C647.715 371.59 645.683 371.994 643.631 371.994C641.579 371.994 639.547 371.59 637.652 370.805C635.756 370.019 634.033 368.868 632.582 367.417C631.132 365.967 629.981 364.244 629.195 362.348C628.41 360.453 628.006 358.421 628.006 356.369C628.006 354.317 628.41 352.285 629.195 350.389C629.981 348.494 631.132 346.771 632.582 345.32V345.32ZM421.875 593.75C418.785 593.75 415.764 592.833 413.195 591.116C410.626 589.399 408.624 586.959 407.441 584.104C406.259 581.249 405.949 578.108 406.552 575.077C407.155 572.047 408.643 569.263 410.827 567.078L466.765 511.14C469.705 508.259 473.663 506.654 477.779 506.675C481.895 506.696 485.837 508.34 488.748 511.251C491.658 514.162 493.303 518.103 493.324 522.22C493.344 526.336 491.74 530.294 488.859 533.234L432.921 589.171C431.472 590.625 429.751 591.777 427.855 592.563C425.959 593.349 423.927 593.752 421.875 593.75V593.75Z" fill="#3C3B41"/>
<path d="M984.375 609.375V924.367C984.375 940.282 978.053 955.545 966.799 966.799C955.545 978.053 940.282 984.375 924.367 984.375V984.375C916.084 984.375 907.891 982.66 900.303 979.339C892.715 976.017 885.897 971.16 880.278 965.075C874.659 958.989 870.361 951.806 867.654 943.978C864.947 936.15 863.89 927.846 864.55 919.589L889.329 609.375" fill="#58565D"/>
<path d="M895.8 919.588L920.578 609.375H889.328L864.55 919.588C863.652 929.198 865.115 938.881 868.81 947.797C872.506 956.713 878.322 964.592 885.754 970.749C893.186 976.906 902.009 981.156 911.457 983.129C920.905 985.102 930.691 984.738 939.966 982.069C926.47 978.446 914.665 970.216 906.599 958.805C898.533 947.394 894.712 933.52 895.8 919.588V919.588Z" fill="#3C3B41"/>
<path d="M984.375 609.375H859.375V265.625C859.375 217.111 870.67 169.263 892.367 125.871C914.063 82.4784 945.564 44.7335 984.375 15.625V15.625V609.375Z" fill="#8B8891"/>
<path d="M890.625 265.625C890.66 224.116 898.969 183.03 915.066 144.77C931.163 106.509 954.725 71.8406 984.375 42.7913V15.625C945.564 44.7335 914.063 82.4784 892.367 125.871C870.67 169.263 859.375 217.111 859.375 265.625V609.375H890.625V265.625Z" fill="#58565D"/>
<path d="M500 531.25C517.259 531.25 531.25 517.259 531.25 500C531.25 482.741 517.259 468.75 500 468.75C482.741 468.75 468.75 482.741 468.75 500C468.75 517.259 482.741 531.25 500 531.25Z" fill="#F7991D"/>
<path d="M500 203.125C441.284 203.125 383.886 220.536 335.065 253.157C286.244 285.779 248.193 332.144 225.723 386.391C203.254 440.638 197.375 500.329 208.83 557.917C220.284 615.506 248.559 668.404 290.078 709.922C331.597 751.441 384.495 779.716 442.083 791.171C499.671 802.626 559.362 796.746 613.609 774.277C667.856 751.807 714.222 713.756 746.843 664.935C779.464 616.114 796.875 558.716 796.875 500C796.892 461.009 789.225 422.397 774.312 386.37C759.399 350.344 737.532 317.61 709.961 290.039C682.39 262.468 649.656 240.601 613.63 225.688C577.603 210.775 538.991 203.108 500 203.125V203.125ZM676.25 654.063C669.656 662.219 662.219 669.656 654.063 676.25C615.632 710.292 566.877 730.432 515.625 733.437C505.246 734.689 494.754 734.689 484.375 733.437C433.123 730.432 384.368 710.292 345.938 676.25C337.781 669.656 330.344 662.219 323.75 654.063C289.708 615.632 269.568 566.877 266.563 515.625C265.311 505.246 265.311 494.754 266.563 484.375C269.568 433.123 289.708 384.368 323.75 345.938C330.344 337.781 337.781 330.344 345.938 323.75C384.369 289.709 433.124 269.569 484.375 266.563C494.754 265.314 505.246 265.314 515.625 266.563C566.877 269.569 615.631 289.709 654.063 323.75C662.219 330.344 669.656 337.781 676.25 345.938C710.292 384.368 730.433 433.123 733.438 484.375C734.689 494.754 734.689 505.246 733.438 515.625C730.432 566.877 710.292 615.632 676.25 654.063V654.063Z" fill="#F7991D"/>
<path d="M234.375 500C234.377 424.006 263.56 350.914 315.897 295.815C368.235 240.717 439.731 207.818 515.625 203.913C510.418 203.642 505.276 203.125 500 203.125C421.264 203.125 345.753 234.403 290.078 290.078C234.403 345.753 203.125 421.264 203.125 500C203.125 578.736 234.403 654.247 290.078 709.922C345.753 765.597 421.264 796.875 500 796.875C505.276 796.875 510.418 796.358 515.625 796.087C439.731 792.182 368.235 759.283 315.897 704.185C263.56 649.086 234.377 575.994 234.375 500V500Z" fill="#E37626"/>
</g>
<defs>
<clipPath id="clip0_606_65">
<rect width="1000" height="1000" fill="white"/>
</clipPath>
</defs>
</svg>
