<svg width="1000" height="1000" viewBox="0 0 1000 1000" fill="none" xmlns="http://www.w3.org/2000/svg">
<g clip-path="url(#clip0_606_80)">
<path fill-rule="evenodd" clip-rule="evenodd" d="M239.221 542.157C239.221 542.157 178.743 529.906 156.424 617.489C206.359 581.124 232.148 628.599 232.148 628.599L239.221 542.157Z" fill="#FB8CB1"/>
<path fill-rule="evenodd" clip-rule="evenodd" d="M156.422 617.49C178.741 529.908 239.219 542.159 239.219 542.159L238.432 551.657C222.029 552.525 190.796 560.818 172.536 608.133C167.484 610.293 162.11 613.348 156.422 617.49Z" fill="#FDC5D8"/>
<path fill-rule="evenodd" clip-rule="evenodd" d="M575.338 451.086C729.336 592.831 672.303 815.422 503.616 896.921C417.554 938.5 279.041 929.493 227.414 866.772C223.702 862.263 162.781 858.281 164.697 837.526C166.612 816.772 210.479 834.779 210.479 834.779C210.479 834.779 187.972 791.345 215.269 783.268C242.567 775.191 236.048 847.434 241.924 849.191C309.937 869.532 387.296 831.047 272.241 711.554C191.38 627.574 232.992 502.221 289.476 460.346L575.338 451.086Z" fill="#FFF2EE"/>
<path fill-rule="evenodd" clip-rule="evenodd" d="M337.732 483.428C554.283 600.858 689.739 545.129 755.467 461.662C821.194 378.194 798.681 236.989 606.901 135.875C415.122 34.7607 250.014 71.509 190.427 151.205C130.84 230.9 121.18 365.998 337.732 483.428Z" fill="#FFF2EE"/>
<path fill-rule="evenodd" clip-rule="evenodd" d="M713.523 89.6597C713.523 89.6597 770.512 102.551 797.309 149.266C824.107 195.981 806.921 233.635 791.171 262.621C791.171 262.621 688.971 244.532 669.814 207.451C650.658 170.371 713.523 89.6597 713.523 89.6597Z" fill="#FB8CB1"/>
<path fill-rule="evenodd" clip-rule="evenodd" d="M236.022 69.2263C161.326 73.553 136.507 113.624 136.507 113.624C136.507 113.624 194.306 182.68 241.545 180.321C288.784 177.962 346.231 99.2416 346.231 99.2416C346.231 99.2416 310.718 64.8996 236.022 69.2263Z" fill="#FB8CB1"/>
<path fill-rule="evenodd" clip-rule="evenodd" d="M422.179 503.792C485.151 533.884 506.651 520.078 516.972 507.982C527.293 495.885 533.701 464.75 477.802 438.038C421.903 411.326 388.351 416.077 373.501 433.482C358.651 450.887 359.207 473.7 422.179 503.792Z" fill="#FB8CB1"/>
<path fill-rule="evenodd" clip-rule="evenodd" d="M793.567 261.272C821.764 304.626 803.202 338.737 786.23 364.94C786.23 364.94 783.123 364.403 777.861 363.345C793.598 337.963 807.719 305.682 781.543 265.434C759.092 230.915 716.115 215.619 699.531 210.818C702.777 207.055 704.794 204.886 704.794 204.886C704.794 204.886 765.37 217.917 793.567 261.272ZM338.616 62.1465C416.077 58.0428 454.117 89.4648 456.319 91.3444L456.421 91.432C456.421 91.432 455.28 92.8599 453.181 95.3322C438.313 85.9886 402.197 68.5443 343.259 71.6667C276.007 75.2296 246.58 103.54 238.971 112.381C234.674 108.139 232.244 105.489 232.244 105.489C232.244 105.489 258.772 66.3765 338.616 62.1465ZM414.863 369.662C443.026 382.781 455.978 397.742 460.649 411.219C453.838 400.459 441.174 389.275 419.506 379.182C361.885 352.341 327.636 359.1 312.723 378.93C306.377 387.368 302.901 396.755 306.002 407.086C296.436 392.934 299.837 380.37 308.08 369.41C322.993 349.58 357.243 342.821 414.863 369.662Z" fill="#FDC5D8"/>
<path fill-rule="evenodd" clip-rule="evenodd" d="M321.523 563.114C335.123 547.935 347.465 473.686 298.708 472.022C249.95 470.357 234.174 586.852 287.581 631.607L321.523 563.114Z" fill="#FFF2EE"/>
<path d="M338.449 40.0826C392.712 31.4993 453.829 31.6322 519.576 42.3959C573.578 51.2368 621.909 66.0824 663.884 85.5547C666.012 85.3108 672.833 84.9688 676.141 84.9315C706.964 84.5836 739.808 90.8587 769.359 107.595C776.461 111.618 783.205 116.186 789.551 121.324C835.014 158.136 845.551 196.859 841.081 257.652C840.985 258.967 840.381 260.146 839.458 260.985C852.161 297.185 855.44 335.417 848.374 373.843C829.783 474.898 766.639 546.519 659.547 574.568C696.1 698.98 637.253 838.044 506.07 901.423L502.482 903.116C412.191 944.715 278.203 932.34 224.111 870.31C219.919 868.983 210.496 866.821 195.844 863.825C173.865 859.33 158.784 850.206 159.997 837.067C161.189 824.154 172.539 820.743 188.622 823.308C195.085 824.677 199.444 825.695 201.699 826.36C199.484 819.101 198.154 814.076 197.71 811.286C195.128 795.068 199.71 782.74 214.13 778.474C223.444 775.718 230.792 779.808 235.465 788.738C238.799 795.109 240.875 803.793 242.329 815.305C243.784 826.817 242.63 833.673 245.489 844.93C279.814 853.306 310.337 848.865 321.746 830.203C335.493 807.718 319.96 768.033 268.918 715.023C244.741 689.913 230.688 659.086 225.241 627.135C224.742 626.444 224.16 625.698 223.513 624.912C216.254 616.098 206.953 609.976 195.748 608.918C184.945 607.898 172.876 611.698 159.4 621.512C155.613 624.269 150.454 620.774 151.611 616.235C163.215 570.701 185.767 546.62 213.886 538.956C220.675 537.106 226.806 536.431 231.89 536.457C234.406 528.609 237.424 520.983 240.908 513.664C201.496 491.169 169.809 464.188 145.717 433.283C100.238 374.943 84.1593 304.752 94.9721 236.614C99.316 209.24 109.431 183.707 124.611 160.623L123.896 160.226C122.228 159.242 121.278 157.383 121.458 155.454C121.942 150.285 124.001 141.711 128.725 131.006C136.517 113.352 149.151 96.1655 167.68 80.7777C179.42 71.0269 193.207 62.3093 209.181 54.8095C258.85 31.4893 303.575 29.9345 339.386 40.3497L338.449 40.0826ZM290.792 627.775C292.909 629.548 293.187 632.702 291.413 634.818C289.64 636.935 286.486 637.213 284.369 635.439C253.669 609.712 244.144 558.831 251.86 519.693C251.126 519.311 250.395 518.92 249.667 518.528C222.652 575.837 225.694 653.33 273.772 705.59L281.954 714.251C331.194 767.236 346.505 808.876 330.278 835.419C315.994 858.783 278.594 865.294 240.771 853.982C236.663 852.753 235.767 850.939 234.789 841.378C233.458 826.859 232.664 818.586 232.408 816.558C231.092 806.141 229.247 798.424 226.605 793.374C223.971 788.341 221.214 786.807 216.967 788.063C208.398 790.598 205.699 797.861 207.586 809.713C208.726 816.876 213.12 828.384 215.217 832.516C217.314 836.649 213.147 841.164 208.859 839.404C204.572 837.645 198.127 834.951 187.047 833.184C175.967 831.417 170.407 833.088 169.955 837.986C169.457 843.378 178.293 848.736 195.275 853.345C212.257 857.954 226.968 860.295 229.876 862.139C230.507 862.539 231.065 863.002 231.553 863.595C279.715 922.106 414.026 934.787 501.72 892.419C628.536 831.15 685.288 696.962 649.803 576.966C588.719 591.124 514.031 591.644 425.838 576.093C392.159 570.154 361.053 562.53 332.494 553.323C330.432 558.843 327.956 563.426 325.246 566.451C323.403 568.508 320.242 568.681 318.185 566.839C316.129 564.996 315.955 561.835 317.798 559.778C324.16 552.677 329.657 530.95 328.509 512.816C327.115 490.809 317.41 477.663 298.537 477.019C253.411 475.478 242.513 587.317 290.792 627.775ZM603.944 598.353C606.38 597.051 609.409 597.971 610.711 600.407C632.08 640.404 610.393 735.744 568.254 737.182L565.95 737.215C542.472 737.071 529.508 722.001 527.287 698.289C525.521 679.44 531.103 656.109 539.564 643.581C541.11 641.292 544.218 640.69 546.506 642.236C548.795 643.781 549.397 646.889 547.851 649.178C540.717 659.741 535.688 680.759 537.243 697.357C539.083 716.995 548.841 727.839 567.913 727.188C600.646 726.071 620.315 639.605 601.89 605.119C600.589 602.683 601.509 599.654 603.944 598.353ZM228.92 546.628L227.247 546.725C223.797 546.997 220.199 547.601 216.516 548.605L214.362 549.233C193.657 555.677 176.413 572.866 165.465 604.691L164.95 606.228L166.82 605.264C177.271 600.075 187.247 598.071 196.688 598.962C206.94 599.93 215.763 604.115 223.183 610.363C221.499 588.813 223.568 567.103 228.92 546.628ZM517.96 52.2645C458.36 42.5072 402.776 41.6114 352.882 48.0641C352.954 48.5277 352.944 49.0036 352.863 49.4807C352.653 50.7222 348.637 69.8287 347.721 73.6052C343.356 91.5999 337.954 109.51 331.448 126.139C317.45 161.911 300.345 186.914 279.25 196.586C261.837 204.571 238.533 204.031 210.81 196.873C195.09 192.815 178.543 186.768 161.768 179.329C153.182 175.521 143.748 170.883 133.464 165.416C118.758 187.543 109.003 212.003 104.849 238.181C94.4556 303.674 109.893 371.063 153.603 427.135C178.557 459.146 212.048 486.887 254.29 509.668C261.429 485.179 276.044 467.338 296.98 467.007L298.878 467.025C323.728 467.873 336.804 485.585 338.489 512.184C339.146 522.563 337.907 533.893 335.441 543.776C363.567 552.844 394.271 560.372 427.574 566.245L422.739 565.386C417.259 562.535 413.901 556.453 414.81 549.988C415.963 541.784 423.548 536.068 431.751 537.221C439.955 538.374 445.671 545.959 444.518 554.163C443.558 560.988 438.147 566.092 431.631 566.95C675.295 608.744 810.245 525.832 838.538 372.034C845.34 335.043 842.087 298.166 829.617 263.197C825.819 263.694 820.572 264.361 813.887 265.204C798.598 266.827 782.889 267.869 767.477 268.059C723.562 268.601 689.878 262.347 671.767 246.431C655.105 231.791 648.549 204.159 649.326 167.443C649.802 144.937 652.962 121.421 657.367 99.765C657.665 98.3004 658.129 96.1228 658.578 94.0756C617.72 75.27 570.637 60.8885 517.96 52.2645ZM344.633 453.619C349.993 415.483 389.963 397.13 459.62 406.92C523.165 415.85 552.604 453.263 547.482 489.711C542.462 525.429 513.869 542.515 442.431 532.475C367.07 521.883 338.849 494.773 344.633 453.619ZM458.228 416.822C393.364 407.706 358.964 423.502 354.536 455.01C349.636 489.873 373.367 512.67 443.823 522.572C510.205 531.901 533.402 518.04 537.579 488.319C541.919 457.435 516.395 424.997 458.228 416.822ZM579.766 404.492C582.456 385.35 595.721 371.391 609.393 373.312C623.066 375.234 631.969 392.309 629.279 411.451C626.589 430.593 613.324 444.552 599.651 442.631C585.978 440.709 577.075 423.634 579.766 404.492ZM282.685 362.74C285.375 343.598 298.64 329.639 312.313 331.56C325.986 333.482 334.889 350.557 332.199 369.699C329.508 388.841 316.244 402.801 302.571 400.879C288.898 398.957 279.995 381.882 282.685 362.74ZM618.844 316.906C631.132 318.633 641.184 326.119 649.207 337.186C651.944 340.961 654.249 344.9 656.147 348.785C657.534 351.878 658.308 353.646 658.47 354.09C659.414 356.685 658.075 359.554 655.48 360.498C652.885 361.442 650.016 360.103 649.072 357.508C648.193 355.426 647.556 353.982 647.162 353.175C645.503 349.779 643.484 346.329 641.111 343.056C634.537 333.987 626.63 328.099 617.452 326.809C608.274 325.519 599.051 329 590.231 335.905C587.048 338.397 584.157 341.157 581.625 343.965C579.804 346.116 578.794 347.329 578.595 347.603C576.973 349.837 573.846 350.333 571.612 348.711C569.377 347.088 568.881 343.962 570.504 341.727C572.265 339.532 573.497 338.046 574.198 337.268C577.094 334.057 580.396 330.905 584.066 328.031C594.829 319.605 606.556 315.179 618.844 316.906ZM321.763 275.154C334.052 276.881 344.104 284.367 352.127 295.434C354.863 299.209 357.169 303.148 359.067 307.034C360.454 310.126 361.228 311.894 361.389 312.338C362.333 314.933 360.995 317.802 358.399 318.746C355.804 319.69 352.935 318.351 351.992 315.756C351.113 313.674 350.476 312.23 350.082 311.423C348.423 308.027 346.404 304.577 344.031 301.304C337.456 292.235 329.55 286.347 320.372 285.057C311.194 283.767 301.971 287.248 293.151 294.153C289.968 296.645 287.076 299.405 284.545 302.213C282.724 304.364 281.714 305.577 281.515 305.851C279.892 308.085 276.766 308.581 274.531 306.959C272.297 305.336 271.801 302.21 273.423 299.975C275.185 297.78 276.417 296.294 277.118 295.516C280.013 292.305 283.315 289.153 286.986 286.279C297.749 277.853 309.475 273.427 321.763 275.154ZM680.439 94.9269L676.254 94.9308C675.216 94.9426 672.651 95.0322 668.56 95.1999L665.781 108.862C662.217 127.965 659.734 148.262 659.323 167.655C658.604 201.658 664.568 226.794 678.367 238.92C694.019 252.673 725.791 258.573 767.354 258.06C782.427 257.874 797.833 256.852 812.831 255.259C816.351 254.886 822.531 254.114 831.371 252.944L831.582 249.496C834.392 197.182 824.3 163.499 785.978 131.338C776.033 123.814 768.851 118.8 764.43 116.297C736.642 100.558 705.463 94.6011 676.254 94.9308L680.439 94.9269ZM336.594 49.9518C302.99 40.1787 260.744 41.6474 213.431 63.8615C198.218 71.0038 185.151 79.2664 174.069 88.4706C156.766 102.841 145.058 118.767 137.874 135.044C136.21 138.814 134.222 144.896 131.91 153.289C149.476 162.318 160.78 167.951 165.822 170.187C182.131 177.42 198.179 183.284 213.31 187.191C239.015 193.828 260.204 194.318 275.083 187.496C293.162 179.207 309.007 156.044 322.135 122.495C328.46 106.331 333.736 88.8366 338.003 71.2479C338.999 67.1413 340.421 60.6476 342.269 51.767L336.594 49.9518Z" fill="#A95F78"/>
<path d="M481.389 497.557C491.108 498.237 499.537 490.909 500.216 481.191C500.896 471.472 493.569 463.043 483.85 462.363C474.131 461.684 465.702 469.011 465.022 478.73C464.343 488.448 471.67 496.878 481.389 497.557Z" fill="white"/>
<path d="M402.609 483.668C412.327 484.347 420.757 477.02 421.436 467.301C422.116 457.583 414.788 449.153 405.07 448.474C395.351 447.794 386.922 455.122 386.242 464.84C385.563 474.559 392.89 482.988 402.609 483.668Z" fill="white"/>
<path d="M851.089 680.347C852.597 681.018 853.655 681.407 854.264 681.514C856.123 681.028 857.448 680.633 858.24 680.329C859.952 670.582 861.174 664.887 861.906 663.243C862.456 662.009 866.778 655.067 867.144 654.245C879.008 631.286 892.073 611.16 906.34 593.868C908.733 591.813 910.584 590.421 911.894 589.691C910.146 585.136 907.559 582.096 904.133 580.57C900.296 578.862 896.192 578.677 891.82 580.014C891.835 580.349 890.4 590.395 890.191 590.865L852.382 659.741L851.467 661.797C848.295 668.922 846.783 674.161 846.933 677.511C847.786 678.548 849.171 679.493 851.089 680.347ZM828.929 716.291C839.48 720.989 846.861 718.61 851.071 709.155C852.901 705.044 848.403 700.578 837.578 695.759C833.467 693.928 830.345 693.195 828.213 693.559C825.273 693.892 822.888 696.114 821.058 700.225C819.96 702.692 819.501 705.197 819.682 707.741C823.928 712.587 827.01 715.437 828.929 716.291ZM903.018 703.467C904.526 704.138 905.584 704.527 906.193 704.634C908.051 704.148 909.377 703.753 910.169 703.449C911.881 693.703 913.103 688.007 913.835 686.363C914.384 685.13 918.707 678.188 919.073 677.365C930.937 654.406 944.002 634.28 958.269 616.988C960.662 614.934 962.513 613.541 963.823 612.811C962.075 608.256 959.488 605.216 956.062 603.691C952.225 601.982 948.12 601.797 943.749 603.134C943.764 603.469 942.329 613.515 942.119 613.985L904.311 682.861L903.396 684.917C900.223 692.043 898.712 697.281 898.862 700.632C899.714 701.668 901.1 702.613 903.018 703.467ZM880.858 739.411C891.409 744.109 898.79 741.73 902.999 732.275C904.83 728.164 900.332 723.699 889.507 718.879C885.396 717.048 882.274 716.315 880.141 716.679C877.202 717.013 874.817 719.235 872.987 723.346C871.888 725.812 871.43 728.317 871.611 730.861C875.857 735.707 878.939 738.557 880.858 739.411Z" fill="#8E2541"/>
</g>
<defs>
<clipPath id="clip0_606_80">
<rect width="1000" height="1000" fill="white"/>
</clipPath>
</defs>
</svg>
