<svg width="1000" height="1000" viewBox="0 0 1000 1000" fill="none" xmlns="http://www.w3.org/2000/svg">
<path fill-rule="evenodd" clip-rule="evenodd" d="M169.648 337.48C163.457 331.289 153.32 331.289 147.129 337.48C140.938 343.672 140.938 353.789 147.129 359.98L237.148 450C243.34 456.191 253.477 456.191 259.668 450C265.859 443.809 265.859 433.691 259.668 427.5L169.648 337.48ZM777.871 776.855C786.387 749.512 790.977 720.469 790.977 690.332C790.977 529.629 660.703 399.355 500 399.355C339.297 399.355 209.023 529.629 209.023 690.332C209.023 720.469 213.613 749.512 222.129 776.855H777.871ZM515.918 207.227C515.918 198.477 508.75 191.309 500 191.309C491.25 191.309 484.082 198.477 484.082 207.227V334.531C484.082 343.301 491.25 350.449 500 350.449C508.75 350.449 515.918 343.301 515.918 334.531V207.227ZM16.8945 674.414C8.125 674.414 0.976562 681.582 0.976562 690.352C0.976562 699.102 8.14453 706.25 16.8945 706.25H144.199C152.949 706.25 160.117 699.102 160.117 690.332C160.117 681.582 152.949 674.414 144.199 674.414H16.8945ZM740.332 427.5C734.141 433.691 734.141 443.809 740.332 450C746.523 456.191 756.66 456.191 762.852 450L852.871 359.98C859.062 353.789 859.062 343.672 852.871 337.48C846.68 331.289 836.543 331.289 830.352 337.48L740.332 427.5ZM855.801 674.414C847.051 674.414 839.883 681.582 839.883 690.352C839.883 699.102 847.051 706.25 855.801 706.25H983.105C991.875 706.25 999.023 699.102 999.023 690.332C999.023 681.582 991.855 674.414 983.105 674.414H855.801Z" fill="url(#paint0_linear_606_63)"/>
<path d="M945.137 776.855H777.871H222.129H54.8633C46.1133 776.855 38.9453 784.023 38.9453 792.773C38.9453 802.773 44.5508 808.691 54.8633 808.691H945.137C955.293 808.691 961.035 802.93 961.035 792.773C961.035 784.023 953.887 776.855 945.137 776.855Z" fill="url(#paint1_linear_606_63)"/>
<defs>
<linearGradient id="paint0_linear_606_63" x1="497.754" y1="600.43" x2="497.773" y2="808.691" gradientUnits="userSpaceOnUse">
<stop stop-color="#F6EB00"/>
<stop offset="1" stop-color="#FDDD00"/>
</linearGradient>
<linearGradient id="paint1_linear_606_63" x1="497.754" y1="600.43" x2="497.773" y2="808.691" gradientUnits="userSpaceOnUse">
<stop offset="0.8125" stop-color="#FDDD00"/>
<stop offset="1" stop-color="#00AFFD"/>
</linearGradient>
</defs>
</svg>
