<svg width="1000" height="1000" viewBox="0 0 1000 1000" fill="none" xmlns="http://www.w3.org/2000/svg">
<g opacity="0.15">
<path d="M100.837 714.723H845.163M196.152 498.233V416.887C196.152 388.168 219.433 364.887 248.152 364.887H382.429C411.148 364.887 434.429 388.168 434.429 416.887V499.028" stroke="#474747" stroke-width="6" stroke-miterlimit="10" stroke-linecap="round" stroke-linejoin="round"/>
<path d="M488.28 690.443H423.409V514.232C423.409 505.395 430.572 498.232 439.409 498.232H472.28C481.117 498.232 488.28 505.395 488.28 514.232V690.443ZM423.409 690.443H461.851V714.469H423.409V690.443ZM168.429 690.443H206.871V714.469H168.429V690.443ZM206.871 690.443H142V514.232C142 505.395 149.163 498.232 158 498.232H190.871C199.708 498.232 206.871 505.395 206.871 514.232V690.443ZM207.172 638.787V576.882C207.172 566.619 215.492 558.299 225.755 558.299H404.825C415.088 558.299 423.408 566.619 423.408 576.882V638.787H207.172Z" stroke="#474747" stroke-width="6" stroke-miterlimit="10" stroke-linecap="round" stroke-linejoin="round"/>
<path d="M423.409 638.789V684.439H207.172V638.789H423.409Z" stroke="#474747" stroke-width="6" stroke-miterlimit="10" stroke-linecap="round" stroke-linejoin="round"/>
<path d="M315.291 472.562C319.496 472.562 322.906 469.153 322.906 464.947C322.906 460.741 319.496 457.332 315.291 457.332C311.085 457.332 307.676 460.741 307.676 464.947C307.676 469.153 311.085 472.562 315.291 472.562Z" stroke="#313031" stroke-width="6" stroke-miterlimit="10" stroke-linecap="round" stroke-linejoin="round"/>
<path d="M567.089 182.715V287.129H424.39V182.715H567.089Z" stroke="#474747" stroke-width="6" stroke-miterlimit="10" stroke-linecap="round" stroke-linejoin="round"/>
<path d="M438.312 196.637H553.167V273.207H438.312V196.637Z" stroke="#474747" stroke-width="6" stroke-miterlimit="10" stroke-linecap="round" stroke-linejoin="round"/>
<path d="M458.962 257.856L477.192 226.282L495.421 257.856H458.962Z" stroke="#474747" stroke-width="6" stroke-miterlimit="10" stroke-linecap="round" stroke-linejoin="round"/>
<path d="M486.306 242.069L498.435 221.061L519.679 257.856H495.421" stroke="#474747" stroke-width="6" stroke-miterlimit="10" stroke-linecap="round" stroke-linejoin="round"/>
<path d="M527.8 226.282C532.285 226.282 535.921 222.646 535.921 218.161C535.921 213.676 532.285 210.04 527.8 210.04C523.315 210.04 519.679 213.676 519.679 218.161C519.679 222.646 523.315 226.282 527.8 226.282Z" stroke="#474747" stroke-width="6" stroke-miterlimit="10" stroke-linecap="round" stroke-linejoin="round"/>
<path d="M817.384 315.136H738.035V353.817H817.384M658.685 353.817H738.035M738.035 315.136H707.651" stroke="#474747" stroke-width="6" stroke-miterlimit="10" stroke-linecap="round" stroke-linejoin="round"/>
<path d="M777.71 392.497H698.361V353.816H777.71V392.497Z" stroke="#474747" stroke-width="6" stroke-miterlimit="10" stroke-linecap="round" stroke-linejoin="round"/>
<path d="M805.043 392.683H738.035V431.364H763.709" stroke="#474747" stroke-width="6" stroke-miterlimit="10" stroke-linecap="round" stroke-linejoin="round"/>
<path d="M738.035 431.365H658.686V392.684H738.035V431.365Z" stroke="#474747" stroke-width="6" stroke-miterlimit="10" stroke-linecap="round" stroke-linejoin="round"/>
</g>
<path d="M705.481 406.885H677.084L682.063 432.645L703.481 429.884C716.167 429.884 727.52 435.909 734.63 446.416C741.739 456.922 743.112 469.702 738.397 481.479L706.535 559.251L713.081 593.114L757.107 483.17C771.737 446.638 744.834 406.885 705.481 406.885V406.885Z" fill="#EFAB59"/>
<path opacity="0.48" d="M681.686 407.359C681.686 407.359 711.74 402.92 730.07 440.858C717.849 432.67 704.286 427.232 682.064 432.646C677.084 406.885 681.686 407.359 681.686 407.359V407.359ZM719.116 527.737L721.949 570.971L712.552 590.378L704.12 558.299L719.116 527.737Z" fill="#FDBA61"/>
<path d="M705.481 406.885H677.084L682.063 432.645L703.481 429.884C716.167 429.884 727.52 435.909 734.63 446.416C741.739 456.922 743.112 469.702 738.397 481.479L706.535 559.251L713.081 593.114L757.107 483.17C771.737 446.638 744.834 406.885 705.481 406.885V406.885Z" stroke="#474747" stroke-width="6" stroke-miterlimit="10" stroke-linecap="round" stroke-linejoin="round"/>
<path d="M679.392 714.723H507.458C476.108 714.723 452.282 690.112 457.499 663.118L510.711 387.829H676.139L729.351 663.118C734.568 690.112 710.742 714.723 679.392 714.723Z" fill="#FDBA61"/>
<path d="M679.392 714.723H507.458C476.108 714.723 452.282 690.112 457.499 663.118L510.711 387.829H676.139L729.351 663.118C734.568 690.112 710.742 714.723 679.392 714.723Z" fill="#FDBA61"/>
<path d="M679.392 714.723H507.458C476.108 714.723 452.282 690.112 457.499 663.118L510.711 387.829H676.139L729.351 663.118C734.568 690.112 710.742 714.723 679.392 714.723Z" fill="#FDBA61"/>
<path opacity="0.4" d="M556.5 680.787L565.641 412.643L566.487 387.829H510.711L457.499 663.118C452.281 690.112 476.107 714.723 507.458 714.723H610.774C581.779 714.723 555.877 699.065 556.5 680.787V680.787Z" fill="#FDBA61"/>
<path opacity="0.4" d="M511.701 673.555L545.166 387.83H510.711L457.499 663.119C452.281 690.113 476.107 714.724 507.458 714.724H566.813C535.463 714.723 509.134 695.471 511.701 673.555V673.555Z" fill="#FDBA61"/>
<path opacity="0.7" d="M510.615 389.83H677.759V396.216H510.615V389.83Z" fill="#FFCB92"/>
<path d="M679.392 714.723H507.458C476.108 714.723 452.282 690.112 457.499 663.118L510.711 387.829H676.139L729.351 663.118C734.568 690.112 710.742 714.723 679.392 714.723Z" stroke="#474747" stroke-width="6" stroke-miterlimit="10" stroke-linecap="round" stroke-linejoin="round"/>
<path d="M676.234 387.83C654.96 366.788 625.711 353.791 593.424 353.791C561.137 353.791 531.889 366.788 510.614 387.83H676.234V387.83Z" fill="#8C7B5F"/>
<path d="M676.234 387.83C654.96 366.788 625.711 353.791 593.424 353.791C561.137 353.791 531.889 366.788 510.614 387.83H676.234V387.83Z" fill="#8C7B5F"/>
<path opacity="0.4" d="M510.615 387.83H676.234C671.791 384.577 666.996 381.588 661.903 378.888L609.604 374.984C596.558 374.011 583.455 374.061 570.416 375.136L524.945 378.887C519.853 381.587 515.058 384.577 510.615 387.83V387.83Z" fill="#8C7B5F"/>
<g opacity="0.2">
<path d="M650.44 368.5C650.558 371.311 625.731 362.191 593.425 362.374C561.119 362.191 536.292 371.311 536.41 368.5C536.292 366.064 561.119 352.691 593.425 352.874C625.731 352.691 650.557 366.064 650.44 368.5Z" fill="white"/>
</g>
<path d="M676.234 387.83C654.96 366.788 625.711 353.791 593.424 353.791C561.137 353.791 531.889 366.788 510.614 387.83H676.234V387.83Z" stroke="#474747" stroke-width="6" stroke-miterlimit="10" stroke-linecap="round" stroke-linejoin="round"/>
<path d="M497.411 458.636L461.243 397.388C459.271 394.048 461.678 389.83 465.557 389.83H510.615L497.411 458.636Z" fill="#FB9437"/>
<path opacity="0.3" d="M500.022 389.83L495.64 412.666C494.234 419.991 478.793 425.423 475.001 419L463.554 398C459.675 398 459.272 394.048 461.244 397.388L497.412 458.636L510.616 389.83H500.022Z" fill="#FB9437"/>
<path opacity="0.7" d="M461.243 394.451L462.947 396.216H508.61L510.614 389.83H465.556C461.679 389.83 459.271 392.409 461.243 394.451V394.451Z" fill="#FFCB92"/>
<path d="M569.012 356.333V344.263C569.012 330.78 579.942 319.85 593.425 319.85C606.908 319.85 617.838 330.78 617.838 344.263V356.333M652.78 438.052L684.303 623M497.411 458.636L461.243 397.388C459.271 394.048 461.678 389.83 465.557 389.83H510.615L497.411 458.636Z" stroke="#474747" stroke-width="6" stroke-miterlimit="10" stroke-linecap="round" stroke-linejoin="round"/>
<path opacity="0.4" d="M470.337 552.632L448.719 658.553C445.065 676.456 455.665 693.241 473.108 701.7C505.496 681.296 526.887 646.421 526.887 606.899V552.632H470.337V552.632Z" fill="#FDBA61"/>
<path d="M291.886 570.971C264.713 570.971 242.685 592.999 242.685 620.172C242.685 647.345 264.713 669.373 291.886 669.373C319.059 669.373 341.087 647.345 341.087 620.172V570.971H291.886ZM313.458 620.172C313.458 632.086 303.8 641.743 291.887 641.743C279.973 641.743 270.316 632.085 270.316 620.172C270.316 608.258 279.974 598.601 291.887 598.601H313.459V620.172H313.458Z" fill="#FB9437"/>
<path d="M291.886 570.971C264.713 570.971 242.685 592.999 242.685 620.172C242.685 647.345 264.713 669.373 291.886 669.373C319.059 669.373 341.087 647.345 341.087 620.172V570.971H291.886ZM313.458 620.172C313.458 632.086 303.8 641.743 291.887 641.743C279.973 641.743 270.316 632.085 270.316 620.172C270.316 608.258 279.974 598.601 291.887 598.601H313.459V620.172H313.458Z" fill="#FB9437"/>
<g opacity="0.4">
<path d="M247.323 624.998C247.323 597.825 269.351 575.797 296.524 575.797H340.088V568.971H290.887C263.714 568.971 241.686 590.999 241.686 618.172C241.686 631.662 247.12 643.881 255.913 652.769C250.304 644.595 247.308 634.911 247.323 624.998V624.998Z" fill="#FB9437"/>
</g>
<path opacity="0.48" d="M294.473 570.971C293.966 570.971 290.877 570.994 290.374 571.009L301.461 570.971C299.067 570.971 298.046 574.959 295.862 588.063C294.986 593.318 285.898 593.194 281.151 596.58C275.675 600.485 270.642 609.208 270.642 616.449L270.903 615.244C270.903 616.942 270.532 613.659 270.903 615.244C273.023 606.184 280.839 599.328 290.375 598.665V598.676L290.909 598.639C291.235 598.616 291.56 598.599 291.887 598.599H313.459V620.17C313.459 631.098 305.325 640.106 294.785 641.524L294.834 641.701C297.557 651.61 288.416 660.868 278.62 657.764C259.683 651.765 244.737 633.377 242.933 615.242C242.769 616.879 242.687 618.523 242.687 620.169C242.687 647.342 264.715 669.37 291.888 669.37C299.727 669.377 307.454 667.503 314.419 663.904L314.451 663.888C315.026 663.59 315.595 663.282 316.159 662.962L316.204 662.936C318.468 661.646 320.627 660.179 322.66 658.548L322.686 658.528C323.139 658.163 323.584 657.789 324.024 657.409L324.307 657.164C324.719 656.802 325.126 656.435 325.526 656.06C325.63 655.963 325.732 655.864 325.834 655.766C326.234 655.384 326.631 654.999 327.019 654.604C327.16 654.461 327.281 654.299 327.508 654.237C328.469 653.978 329.273 653.375 329.529 652.414C329.793 651.424 330.435 650.746 331.001 650.006C331.27 649.654 331.532 649.296 331.791 648.936C332.204 648.366 332.604 647.787 332.992 647.2C333.163 646.941 333.329 646.678 333.495 646.416C333.711 646.075 333.927 645.735 334.135 645.388C334.317 645.084 334.489 644.775 334.664 644.467C334.943 643.976 335.216 643.482 335.478 642.981C335.701 642.556 335.923 642.132 336.134 641.7C336.278 641.405 336.412 641.104 336.55 640.806C336.723 640.433 336.895 640.059 337.059 639.681C337.191 639.376 337.317 639.068 337.443 638.76C337.895 637.658 338.305 636.54 338.672 635.407C338.762 635.131 338.855 634.856 338.94 634.578C339.12 633.991 339.286 633.398 339.445 632.801C339.478 632.677 339.517 632.554 339.549 632.429C339.733 631.713 339.897 630.99 340.049 630.262C340.1 630.017 340.143 629.769 340.19 629.522C340.287 629.02 340.379 628.517 340.46 628.01C340.627 626.957 340.761 625.9 340.862 624.839C340.911 624.315 340.949 623.788 340.982 623.259C340.997 623.01 341.017 622.763 341.029 622.513C341.065 621.736 341.088 620.956 341.088 620.171V570.97H294.473V570.971Z" fill="#FDBA61"/>
<path d="M291.886 570.971C264.713 570.971 242.685 592.999 242.685 620.172C242.685 647.345 264.713 669.373 291.886 669.373C319.059 669.373 341.087 647.345 341.087 620.172V570.971H291.886ZM313.458 620.172C313.458 632.086 303.8 641.743 291.887 641.743C279.973 641.743 270.316 632.085 270.316 620.172C270.316 608.258 279.974 598.601 291.887 598.601H313.459V620.172H313.458Z" stroke="#474747" stroke-width="6" stroke-miterlimit="10" stroke-linecap="round" stroke-linejoin="round"/>
<path d="M415.52 714.723C356.897 714.723 309.373 667.2 309.373 608.576V551.276H521.666V608.576C521.667 667.2 474.143 714.723 415.52 714.723V714.723Z" fill="#FDBA61"/>
<g opacity="0.7">
<path d="M485.77 661.268H453.336V628.599L469.553 610.317L485.77 628.599V661.268ZM469.553 551.277V610.317Z" fill="#A9A9A9"/>
<path d="M469.553 551.277V610.317M485.77 661.268H453.336V628.599L469.553 610.317L485.77 628.599V661.268Z" stroke="#FB9437" stroke-width="6" stroke-miterlimit="10" stroke-linecap="round" stroke-linejoin="round"/>
</g>
<path opacity="0.4" d="M370.125 608.577V551.277H309.374V608.577C309.374 667.2 356.897 714.724 415.521 714.724C426.078 714.724 436.272 713.175 445.896 710.306C402.076 697.239 370.125 656.643 370.125 608.577Z" fill="#FDBA61"/>
<path opacity="0.4" d="M341.189 608.577V551.277H309.374V608.577C309.374 667.2 356.897 714.724 415.521 714.724C420.928 714.724 426.239 714.317 431.429 713.537C380.351 705.86 341.189 661.793 341.189 608.577Z" fill="#FDBA61"/>
<path opacity="0.7" d="M309.374 552.093H521.667V559.171H309.374V552.093Z" fill="#FFCB92"/>
<path d="M415.52 714.723C356.897 714.723 309.373 667.2 309.373 608.576V551.276H521.666V608.576C521.667 667.2 474.143 714.723 415.52 714.723V714.723Z" stroke="#474747" stroke-width="6" stroke-miterlimit="10" stroke-linecap="round" stroke-linejoin="round"/>
<path d="M479.77 655.268H447.336V622.599L463.553 604.317L479.77 622.599V655.268Z" fill="#D51C29"/>
<path d="M479.77 655.268H447.336V622.599L463.553 604.317L479.77 622.599V655.268Z" fill="#6AB36F" stroke="#474747" stroke-width="6" stroke-miterlimit="10" stroke-linecap="round" stroke-linejoin="round"/>
<path opacity="0.5" d="M453.336 628.599L469.214 610.699L463.553 604.317L447.336 622.599V655.268H453.336V628.599Z" fill="#6AB36F"/>
<path d="M463.553 551.277V604.317M405.111 387.83C397.28 399 392.715 417.564 392.929 427.853C393.722 465.887 419.229 465.912 423.454 492C424.572 498.903 422.371 510.021 415.521 527.737M435.03 422.233C432.152 427.638 427.332 440.5 445.456 462C465.051 485.245 460.424 509 454.198 527.737M356.392 431.958C345.78 457.333 361.534 474.224 378.981 492.581C392.686 507 378.859 530.32 374.345 535.06M502.602 569.971V610.785M479.77 655.268H447.336V622.599L463.553 604.317L479.77 622.599V655.268Z" stroke="#474747" stroke-width="6" stroke-miterlimit="10" stroke-linecap="round" stroke-linejoin="round"/>
</svg>
