<svg width="1000" height="1000" viewBox="0 0 1000 1000" fill="none" xmlns="http://www.w3.org/2000/svg">
<path d="M937.5 388.438C937.5 432.5 901.719 468.281 857.344 468.281H640.156C610.625 468.281 586.875 444.531 586.875 415.312C586.875 388.437 606.719 366.25 632.812 362.812C633.125 333.594 656.875 310.156 685.938 310.156C688.125 310.156 690.469 310.312 692.656 310.625C702.969 278.594 733.281 255.469 768.906 255.469C804.062 255.469 834.062 278.125 844.688 309.687C848.75 308.906 853.125 308.594 857.5 308.594C901.719 308.437 937.5 344.219 937.5 388.438Z" fill="#C6C6C6"/>
<path d="M496.094 801.562C669.632 801.562 810.312 660.602 810.312 486.719C810.312 312.835 669.632 171.875 496.094 171.875C322.556 171.875 181.875 312.835 181.875 486.719C181.875 660.602 322.556 801.562 496.094 801.562Z" fill="#5E5E5E"/>
<path d="M354.531 440.937C385.942 440.937 411.406 415.404 411.406 383.906C411.406 352.409 385.942 326.875 354.531 326.875C323.12 326.875 297.656 352.409 297.656 383.906C297.656 415.404 323.12 440.937 354.531 440.937Z" fill="#757575"/>
<path d="M535.469 715.469C566.88 715.469 592.344 689.935 592.344 658.437C592.344 626.94 566.88 601.406 535.469 601.406C504.058 601.406 478.594 626.94 478.594 658.437C478.594 689.935 504.058 715.469 535.469 715.469Z" fill="#757575"/>
<path d="M562.969 310.625C578.243 310.625 590.625 298.243 590.625 282.969C590.625 267.695 578.243 255.312 562.969 255.312C547.695 255.312 535.312 267.695 535.312 282.969C535.312 298.243 547.695 310.625 562.969 310.625Z" fill="#757575"/>
<path d="M552.969 716.563C552.969 778.281 502.812 828.125 440.937 828.125H137.031C95.9375 828.125 62.5 794.844 62.5 754.062C62.5 716.562 90.3125 685.469 126.719 680.625C127.187 639.844 160.312 607.031 201.094 607.031C204.219 607.031 207.344 607.187 210.469 607.656C225 562.812 267.187 530.469 317.187 530.469C366.406 530.469 408.281 562.188 423.125 606.406C428.906 605.313 435 604.844 440.937 604.844C502.812 604.687 552.969 654.688 552.969 716.563Z" fill="#D8D8D8"/>
</svg>
